<?xml version="1.0" encoding="utf-8"?>
<!-- Generator: Adobe Illustrator 14.0.0, SVG Export Plug-In . SVG Version: 6.00 Build 43363)  -->
<!DOCTYPE svg PUBLIC "-//W3C//DTD SVG 1.1//EN" "http://www.w3.org/Graphics/SVG/1.1/DTD/svg11.dtd">
<svg version="1.1" id="Layer_1" xmlns="http://www.w3.org/2000/svg" xmlns:xlink="http://www.w3.org/1999/xlink" x="0px" y="0px"
	 width="99.52px" height="76.617px" viewBox="0 0 99.52 76.617" enable-background="new 0 0 99.52 76.617" xml:space="preserve">
<g>
	<path fill="#FFFFFF" d="M86.744,26.831C84.827,11.08,71.777,6.162,64.18,6.919c0.807-0.327,1.623-0.63,2.449-0.907
		c1.094-0.394,7.553-1.448,6.537-3.724c-0.86-2.009-8.75,1.509-10.234,1.972c1.962-0.735,5.205-2.004,5.551-4.261
		c-3.003,0.412-5.952,1.834-8.23,3.902c0.825-0.886,1.448-1.965,1.579-3.129c-5.519,3.531-9.458,9.529-12.612,16.195
		C30.534,15.131,17.784,9.18,14.475,7.084c-4.057-2.57,5.181,9.279,8.128,10.512c2.551,1.068,7.3,3.202,15.666,4.833
		c-15.575-1.578-26.348-5.005-29.627-6.22c-5.705-2.113,3.67,11.159,6.617,12.392c2.338,0.978,13.934,4.334,21.344,5.871
		c-7.837-0.942-17.816-1.655-20-2.209c-5.143-1.305,3.531,7.463,7.031,8.338c2.074,0.519,10.886,1.573,16.844,2.37
		c-6.052,0.059-11.668,0.514-14.042,0.291c-3.366-0.312,2.545,3.066,8.257,5.668c-3.051,4.633-16.068,23.205-33.616,27.232
		c-11.017,2.529,65.59-4.661,85.5-42.958"/>
	<path fill="#FFFFFF" d="M74.452,44.08c0,0,10.317-11.396,20.474-16.574c18.651-9.509-25.227,2.12-29.599,3.199"/>
</g>
</svg>
