<?xml version="1.0" encoding="utf-8"?>
<!-- Generator: Adobe Illustrator 15.0.0, SVG Export Plug-In . SVG Version: 6.00 Build 0)  -->
<!DOCTYPE svg PUBLIC "-//W3C//DTD SVG 1.1//EN" "http://www.w3.org/Graphics/SVG/1.1/DTD/svg11.dtd">
<svg version="1.1" id="Layer_1" xmlns="http://www.w3.org/2000/svg" xmlns:xlink="http://www.w3.org/1999/xlink" x="0px" y="0px"
	 width="302.64px" height="152px" viewBox="0 0 302.64 152" enable-background="new 0 0 302.64 152" xml:space="preserve">
<path fill-rule="evenodd" clip-rule="evenodd" fill="#FFFFFF" d="M26.328,71.987c-6.709,0.045-12.459,1.048-17.674,2.587
	c2.154,21.267,16.92,29.922,34.054,36.209c-4.331,0.861-9.022,1.646-12.932,3.88c-1.856,1.061-5.39,3.913-5.604,6.034
	c-0.357,3.547,5.547,10.305,9.914,13.795c8.233,6.579,17.539,9.106,29.312,9.914c-3.417,1.817-6.592,4.359-8.503,7.594H253.01
	c2.984-6.675,5.606-13.651,7.816-20.957c11.797,0.935,22.945-1.738,30.605-6.034c4.729-2.652,9.479-6.409,11.208-10.777
	c-12.252,0.822-26.602,0.999-35.348-3.017c15.478-2.771,30.217-6.28,33.623-21.123c-10.505,5.209-29.468,5.431-41.382,1.294
	c-9.395-37.161-30.268-62.842-71.125-68.539c7.637-2.11,26.925-4.823,24.14-15.519c-5.215-3.764-14.257-0.32-19.398,1.293
	c1.613-2.554,4.307-4.026,3.88-8.621c-10.24,1.255-17.773,5.217-24.571,9.914c0.706-2.168,2.064-3.683,1.725-6.896
	c-29.299,17.976-42.323,52.223-56.038,85.781c-12.179-13.513-27.471-22.265-44.831-30.605C49.973,46.979,25.129,35.964,0.033,27.157
	C-0.789,51.4,13.923,62.408,26.328,71.987z"/>
</svg>
